<?xml version="1.0" encoding="iso-8859-1"?>
<!-- Generator: Adobe Illustrator 19.0.0, SVG Export Plug-In . SVG Version: 6.00 Build 0)  -->
<svg version="1.1" id="Capa_1" xmlns="http://www.w3.org/2000/svg" xmlns:xlink="http://www.w3.org/1999/xlink" x="0px" y="0px"
	 viewBox="0 0 496 496" style="enable-background:new 0 0 496 496;" xml:space="preserve">
<path style="fill:#AFB8C9;" d="M317.088,365.088l22.624,22.624C332.48,394.952,328,404.952,328,416c0,22.088,17.912,40,40,40
	s40-17.912,40-40l26.792,26.792C424.16,469.28,398.288,488,368,488c-39.768,0-72-32.232-72-72
	C296,396.12,304.056,378.12,317.088,365.088z"/>
<polygon style="fill:#ECECEC;" points="32,8 352,328 328,352 8,32 8,8 "/>
<g>
	<path style="fill:#8C95A4;" d="M339.712,387.712C332.48,394.952,328,404.952,328,416c0,1.984,0.304,3.888,0.584,5.8
		c-7.128,6.52-16.232,10.2-25.96,10.2c-1.68,0-3.28-0.288-4.904-0.496c-1.096-5-1.72-10.176-1.72-15.504
		c0-19.88,8.056-37.88,21.088-50.912L339.712,387.712z"/>
	<path style="fill:#8C95A4;" d="M408,416l26.792,26.792c-3.528,8.784-8.856,16.6-15.344,23.28l-22.544-22.544
		C403.744,436.352,408,426.696,408,416z"/>
</g>
<rect x="387.062" y="336.139" transform="matrix(-0.7071 0.7071 -0.7071 -0.7071 975.4163 404.0146)" style="fill:#EABD8C;" width="33.944" height="135.767"/>
<rect x="425.383" y="428.695" transform="matrix(-0.7071 0.7071 -0.7071 -0.7071 1067.936 442.3487)" style="fill:#D3A06C;" width="33.944" height="27.312"/>
<path style="fill:#FCD770;" d="M472,416l-56,56l4.4,4.4c7.424,7.424,17.496,11.6,28,11.6l0,0c21.872,0,39.6-17.728,39.6-39.6l0,0
	c0-10.504-4.168-20.576-11.6-28L472,416z"/>
<rect x="313.362" y="316.673" transform="matrix(-0.7071 0.7071 -0.7071 -0.7071 797.4922 330.3249)" style="fill:#B6C1CE;" width="33.944" height="27.312"/>
<rect x="348.679" y="351.997" transform="matrix(-0.7071 0.7071 -0.7071 -0.7071 882.7614 365.6547)" style="fill:#D3A06C;" width="33.944" height="27.312"/>
<path style="fill:#FCD770;" d="M377.376,286.624l-90.752,90.752c-4.24,4.24-6.624,10-6.624,16l0,0
	C280,405.872,290.128,416,302.624,416l0,0c6,0,11.76-2.384,16-6.624l90.744-90.744c4.24-4.24,6.624-10,6.624-16l0,0
	C416,290.128,405.872,280,393.376,280l0,0C387.368,280,381.616,282.384,377.376,286.624z"/>
<path style="fill:#AFB8C9;" d="M178.912,365.088l-22.624,22.624C163.52,394.952,168,404.952,168,416c0,22.088-17.912,40-40,40
	s-40-17.912-40-40l-26.792,26.792C71.84,469.28,97.712,488,128,488c39.768,0,72-32.232,72-72
	C200,396.12,191.944,378.12,178.912,365.088z"/>
<rect x="231.026" y="215.029" transform="matrix(-0.7071 0.7071 -0.7071 -0.7071 598.7195 247.9966)" style="fill:#B6C1CE;" width="33.944" height="65.935"/>
<polygon style="fill:#ECECEC;" points="464,8 144,328 168,352 488,32 488,8 "/>
<g>
	<path style="fill:#8C95A4;" d="M156.288,387.712C163.52,394.952,168,404.952,168,416c0,1.984-0.304,3.888-0.584,5.8
		c7.128,6.52,16.232,10.2,25.96,10.2c1.68,0,3.28-0.288,4.904-0.496c1.096-5,1.72-10.176,1.72-15.504
		c0-19.88-8.056-37.88-21.088-50.912L156.288,387.712z"/>
	<path style="fill:#8C95A4;" d="M88,416l-26.792,26.792c3.528,8.784,8.856,16.6,15.344,23.28l22.544-22.544
		C92.256,436.352,88,426.696,88,416z"/>
</g>
<rect x="24.095" y="387.061" transform="matrix(-0.7071 0.7071 -0.7071 -0.7071 442.7112 624.6893)" style="fill:#EABD8C;" width="135.767" height="33.944"/>
<rect x="39.987" y="425.365" transform="matrix(-0.7071 0.7071 -0.7071 -0.7071 404.3531 717.185)" style="fill:#D3A06C;" width="27.312" height="33.944"/>
<path style="fill:#FCD770;" d="M24,416l56,56l-4.4,4.4c-7.432,7.432-17.496,11.6-28,11.6l0,0C25.728,488,8,470.272,8,448.4l0,0
	c0-10.504,4.168-20.576,11.6-28L24,416z"/>
<rect x="151.987" y="313.359" transform="matrix(-0.7071 0.7071 -0.7071 -0.7071 516.3486 446.7822)" style="fill:#B6C1CE;" width="27.312" height="33.944"/>
<rect x="116.686" y="348.684" transform="matrix(-0.7071 0.7071 -0.7071 -0.7071 481.0655 532.048)" style="fill:#D3A06C;" width="27.312" height="33.944"/>
<path style="fill:#FCD770;" d="M118.624,286.624l90.744,90.744c4.24,4.24,6.624,10,6.624,16l0,0
	C216,405.872,205.872,416,193.376,416l0,0c-6,0-11.76-2.384-16-6.624l-90.752-90.752c-4.24-4.24-6.624-10-6.624-16l0,0
	C80,290.128,90.128,280,102.624,280l0,0C108.632,280,114.384,282.384,118.624,286.624z"/>
<path d="M496,35.312V0h-35.312L248,212.688L35.312,0H0v35.312L212.688,248L152,308.688l-27.72-27.712
	c-5.784-5.792-13.464-8.976-21.656-8.976C85.744,272,72,285.736,72,302.632c0,8.176,3.184,15.864,8.968,21.656L108.688,352
	L40,420.688l-16-16l-10.056,10.056C4.952,423.736,0,435.688,0,448.4C0,474.648,21.352,496,47.6,496
	c12.712,0,24.664-4.952,33.656-13.944l0.656-0.656C95.208,490.776,111.232,496,128,496c42.68,0,77.568-33.632,79.784-75.768
	c9.6-5.176,16.216-15.208,16.216-26.856c0-8.176-3.184-15.864-8.968-21.656L187.312,344L248,283.312L308.688,344l-27.72,27.72
	c-5.784,5.784-8.968,13.472-8.968,21.648c0,11.648,6.616,21.68,16.216,26.856C290.432,462.368,325.32,496,368,496
	c16.768,0,32.784-5.224,46.08-14.6l0.664,0.664C423.736,491.048,435.688,496,448.4,496c26.248,0,47.6-21.352,47.6-47.6
	c0-12.712-4.952-24.664-13.944-33.656L472,404.68l-16,16L387.312,352l27.72-27.72c5.784-5.784,8.968-13.472,8.968-21.648
	C424,285.736,410.256,272,393.376,272c-8.184,0-15.872,3.184-21.656,8.976L344,308.688L283.312,248L496,35.312z M16,28.688V16
	h12.688l208,208L224,236.688L16,28.688z M132.688,376L116,392.688L103.312,380L120,363.312L132.688,376z M153.792,397.096
	C157.84,402.608,160,409.128,160,416c0,17.648-14.352,32-32,32c-11.76,0-22.424-6.488-28.008-16.68L144,387.312L153.792,397.096z
	 M92,416.688L79.312,404L92,391.312L104.688,404L92,416.688z M68,415.312L80.688,428L64,444.688L51.312,432L68,415.312z M47.6,480
	C30.176,480,16,465.824,16,448.4c0-7.84,2.84-15.256,8.04-21.048l44.616,44.616C62.848,477.16,55.448,480,47.6,480z M128,480
	c-20.208,0-38.992-9.568-51.072-25.616l11.448-11.448C97.208,455.92,111.928,464,128,464c25.64,0,46.592-20.224,47.88-45.552
	c4.584,3.216,9.936,5.024,15.6,5.368C187.6,455.424,160.64,480,128,480z M208,393.368c0,8.072-6.56,14.632-14.624,14.632
	c-3.848,0-7.616-1.56-10.344-4.288L92.28,312.976c-2.76-2.768-4.28-6.44-4.28-10.344C88,294.56,94.56,288,102.624,288
	c3.848,0,7.616,1.56,10.344,4.28l90.752,90.744C206.48,385.792,208,389.464,208,393.368z M163.312,320l304-304H480v12.688l-304,304
	L163.312,320z M304.528,423.816c5.656-0.352,11.016-2.152,15.6-5.368C321.408,443.776,342.36,464,368,464
	c16.072,0,30.792-8.08,39.624-21.064l11.448,11.448C406.992,470.432,388.208,480,368,480C335.36,480,308.4,455.424,304.528,423.816z
	 M352,387.312l44.008,44.008C390.424,441.512,379.76,448,368,448c-17.648,0-32-14.352-32-32c0-6.872,2.16-13.392,6.208-18.896
	L352,387.312z M391.312,404L404,391.312L416.688,404L404,416.688L391.312,404z M480,448.4c0,17.424-14.176,31.6-31.6,31.6
	c-7.84,0-15.248-2.84-21.056-8.032l44.616-44.616C477.16,433.152,480,440.552,480,448.4z M432,444.688L415.312,428L428,415.312
	L444.688,432L432,444.688z M392.688,380L380,392.688L363.312,376L376,363.312L392.688,380z M383.032,292.288L383.032,292.288
	c2.728-2.728,6.488-4.288,10.344-4.288c8.064,0,14.624,6.56,14.624,14.632c0,3.904-1.52,7.584-4.28,10.344l-90.752,90.744
	c-2.728,2.72-6.488,4.28-10.344,4.28C294.56,408,288,401.44,288,393.368c0-3.904,1.52-7.584,4.28-10.344L383.032,292.288z
	 M332.688,320L320,332.688L259.312,272L272,259.312L332.688,320z"/>
<g>
</g>
<g>
</g>
<g>
</g>
<g>
</g>
<g>
</g>
<g>
</g>
<g>
</g>
<g>
</g>
<g>
</g>
<g>
</g>
<g>
</g>
<g>
</g>
<g>
</g>
<g>
</g>
<g>
</g>
</svg>
