<?xml version="1.0" encoding="iso-8859-1"?>
<!-- Generator: Adobe Illustrator 18.0.0, SVG Export Plug-In . SVG Version: 6.00 Build 0)  -->
<!DOCTYPE svg PUBLIC "-//W3C//DTD SVG 1.1//EN" "http://www.w3.org/Graphics/SVG/1.1/DTD/svg11.dtd">
<svg version="1.1" id="Capa_1" xmlns="http://www.w3.org/2000/svg" xmlns:xlink="http://www.w3.org/1999/xlink" x="0px" y="0px"
	 viewBox="0 0 412.156 412.156" style="enable-background:new 0 0 412.156 412.156;" xml:space="preserve">
<g>
	<polygon style="fill:#F9E17A;" points="336.773,377.895 341.497,340.097 276.531,275.13 280.074,321.197 	"/>
	<polygon style="fill:#E0C75F;" points="379.296,335.372 341.497,340.097 276.531,275.13 322.598,278.674 	"/>
	
		<rect x="195.466" y="4.547" transform="matrix(0.7071 0.7071 -0.7071 0.7071 202.4674 -83.0419)" style="fill:#F9E17A;" width="11.999" height="396.623"/>
	<path style="fill:#F99C38;" d="M346.514,355.72L55.574,64.781c-2.929-2.929-2.929-7.677,0-10.606c2.93-2.929,7.678-2.929,10.607,0
		l290.94,290.939C353.137,349.099,350.97,351.265,346.514,355.72z"/>
	<path style="fill:#666666;" d="M40.096,407.065L40.096,407.065c17.877-17.878,21.204-45.771,8.091-67.831
		c-23.568-39.645-33.541-86.842-28.08-132.898c5.631-47.496,26.523-90.517,60.417-124.411
		c33.895-33.894,76.915-54.786,124.412-60.417c46.057-5.461,93.254,4.511,132.898,28.079c22.06,13.115,49.952,9.787,67.83-8.09v0
		c8.229,8.229,6.212,22.16-4.106,27.545c-22.758,11.877-50.748,11.526-73.945-2.264C252.407,22.071,156.617,34.116,94.666,96.067
		C32.714,158.019,20.671,253.81,65.378,329.014c13.79,23.197,14.14,51.188,2.263,73.945
		C62.256,413.277,48.325,415.294,40.096,407.065z"/>
	<path style="fill:#EF5252;" d="M33.237,65.197L33.237,65.197c-9.004-2.558-16.042-9.596-18.6-18.6L1.401,0l46.596,13.236
		c9.004,2.558,16.042,9.596,18.6,18.6l0,0C72.377,52.183,53.584,70.976,33.237,65.197z"/>
</g>
<g>
</g>
<g>
</g>
<g>
</g>
<g>
</g>
<g>
</g>
<g>
</g>
<g>
</g>
<g>
</g>
<g>
</g>
<g>
</g>
<g>
</g>
<g>
</g>
<g>
</g>
<g>
</g>
<g>
</g>
</svg>
